<?xml version="1.0" standalone="no"?>
<!DOCTYPE svg PUBLIC "-//W3C//DTD SVG 20010904//EN" "http://www.w3.org/TR/2001/REC-SVG-20010904/DTD/svg10.dtd">
<svg xmlns="http://www.w3.org/2000/svg" version="1.0" width="1024.000000pt" height="1024.000000pt" viewBox="0 0 1024.000000 1024.000000" preserveAspectRatio="xMidYMid meet">
<metadata>
Created by potrace 1.16, written by Peter Selinger 2001-2019
<meta name="Producer" content="Online-Convert"/></metadata>
<g transform="translate(0.000000,1024.000000) scale(0.100000,-0.100000)" fill="#000000" stroke="none">
<path d="M5235 9253 c-88 -20 -158 -72 -198 -148 l-22 -40 -3 -1272 c-1 -700 -6 -1273 -10 -1273 -19 0 -54 52 -97 143 -25 53 -45 103 -45 110 0 8 8 29 17 48 25 50 29 148 8 193 -25 53 -76 88 -134 94 -65 6 -113 -11 -153 -56 l-34 -37 -39 22 c-145 82 -325 -15 -351 -189 -10 -66 -19 -75 -79 -88 -90 -19 -145 -79 -145 -160 0 -55 20 -100 61 -134 28 -24 33 -34 30 -66 -5 -75 54 -147 135 -164 28 -6 32 -12 37 -47 10 -77 78 -138 167 -148 l45 -6 47 -135 c26 -74 47 -139 47 -145 1 -5 -27 -19 -60 -29 -150 -47 -269 -194 -327 -406 -49 -177 -54 -260 -47 -755 l7 -460 23 -25 c22 -24 23 -33 28 -255 6 -255 24 -446 67 -729 33 -221 42 -171 -88 -501 -122 -313 -252 -670 -252 -695 0 -14 10 -24 30 -31 17 -6 30 -13 30 -15 0 -2 -39 -91 -86 -196 -99 -222 -154 -360 -161 -404 -11 -68 39 -106 256 -192 l146 -57 343 0 c291 0 345 3 353 15 18 26 2 140 -28 200 -34 66 -62 84 -178 112 -47 11 -85 24 -85 29 0 5 6 9 14 9 52 0 79 87 37 121 -16 13 -21 24 -16 39 4 13 0 31 -9 45 -22 33 -61 32 -109 -1 -21 -14 -41 -23 -45 -20 -6 7 7 49 40 125 16 37 22 42 41 37 12 -3 39 -9 59 -12 l37 -6 55 109 c183 366 294 724 346 1123 11 80 16 99 23 89 1 -2 40 -51 86 -107 50 -62 151 -214 249 -375 179 -296 316 -515 436 -701 86 -131 71 -122 171 -101 29 6 32 4 102 -112 39 -65 117 -203 173 -308 129 -238 146 -265 168 -264 9 0 211 109 447 243 477 269 459 255 410 331 -59 90 -128 109 -301 81 -56 -9 -116 -16 -134 -16 l-32 0 43 51 42 50 -20 27 c-17 22 -28 27 -64 27 -31 0 -48 5 -57 17 -8 10 -26 18 -44 18 -36 0 -83 -46 -93 -91 -4 -16 -11 -29 -17 -27 -5 2 -27 31 -48 65 l-40 62 34 11 c70 23 72 15 -104 337 -90 164 -208 381 -263 483 -54 102 -139 255 -187 340 -48 85 -149 268 -225 405 -76 138 -170 309 -210 380 -137 245 -189 350 -187 372 2 11 -4 55 -12 97 -9 41 -16 84 -16 95 0 19 1 19 48 1 26 -10 79 -23 117 -28 117 -18 185 5 283 94 l60 54 89 -36 c172 -69 226 -65 327 27 95 88 240 288 371 514 78 134 225 422 225 440 0 12 26 15 153 16 83 1 496 4 917 8 l765 6 47 27 c25 16 60 45 77 65 65 79 61 -41 61 1793 l0 1666 -26 52 c-29 58 -69 96 -134 126 l-45 21 -1675 1 c-921 1 -1684 0 -1695 -3z m3371 -48 c48 -8 110 -60 138 -117 l26 -52 0 -1650 c-1 -1353 -3 -1658 -14 -1689 -22 -59 -64 -107 -120 -133 l-51 -24 -1102 0 -1102 0 -6 35 c-3 19 -7 51 -10 70 -8 49 11 145 46 232 16 40 29 84 29 97 0 37 -37 76 -71 76 -18 0 -29 5 -29 13 0 29 -38 50 -80 44 -22 -3 -43 -1 -46 4 -14 23 -134 -5 -134 -32 0 -4 -13 -2 -28 3 -71 27 -138 -33 -182 -162 -20 -58 -22 -77 -15 -180 10 -167 10 -177 -5 -195 -12 -15 -46 -16 -319 -13 l-306 3 -55 31 c-38 21 -64 46 -84 78 -27 43 -30 57 -34 156 -4 100 -3 111 17 136 12 15 28 51 37 80 17 59 9 126 -26 228 l-19 55 39 39 c42 41 59 85 43 111 -5 9 -28 25 -51 36 l-42 19 0 1249 c0 877 3 1261 11 1292 6 24 27 62 46 85 69 80 2 74 893 80 913 6 2560 3 2606 -5z m-3741 -2568 c55 -122 74 -142 173 -177 76 -28 79 -42 15 -103 l-46 -45 31 -95 c18 -53 32 -114 32 -137 0 -97 -78 -173 -178 -174 -32 -1 -72 3 -90 7 -25 7 -33 5 -38 -8 -9 -21 -3 -26 53 -40 l48 -12 22 -84 c12 -46 22 -98 22 -115 1 -36 23 -70 39 -60 17 10 14 61 -8 146 -28 108 -27 112 24 131 l44 16 4 -101 c4 -143 41 -210 143 -264 l50 -27 318 -5 319 -5 -169 -210 c-92 -116 -186 -231 -207 -257 l-40 -47 -35 32 c-35 31 -36 34 -33 93 l4 62 -89 98 c-105 115 -204 206 -359 327 -123 96 -215 145 -292 154 l-51 6 -50 149 c-45 135 -49 152 -35 166 13 12 13 17 2 28 -10 11 -22 11 -53 3 -53 -15 -105 2 -144 46 -41 47 -43 109 -6 153 50 60 136 50 201 -24 34 -38 42 -43 52 -31 10 11 7 22 -13 52 -22 31 -24 40 -13 53 21 25 16 150 -9 200 l-20 42 29 0 c19 0 40 10 59 29 28 28 34 48 29 99 -1 20 1 22 27 15 43 -12 99 -6 141 16 20 11 40 16 43 13 3 -4 27 -56 54 -115z m1320 -566 c3 -5 -20 -51 -52 -103 -52 -84 -57 -99 -61 -158 -4 -84 9 -155 28 -155 12 0 15 18 15 95 0 94 0 96 45 174 59 103 101 152 124 143 21 -8 17 -23 -35 -132 -31 -64 -41 -97 -48 -169 -10 -99 -7 -119 18 -114 13 3 18 25 27 104 12 109 40 177 94 229 58 56 64 -3 14 -135 -29 -77 -34 -145 -24 -325 3 -47 -1 -69 -18 -102 -30 -58 -63 -77 -130 -78 -64 0 -81 -19 -33 -36 17 -6 31 -13 31 -15 0 -3 -29 -65 -64 -139 -156 -327 -396 -655 -522 -714 -137 -65 -395 36 -624 242 -36 32 -41 41 -35 65 23 96 130 220 245 285 l64 36 30 -26 c86 -71 119 -107 110 -118 -41 -55 -46 -67 -36 -77 21 -21 46 7 346 380 224 279 224 279 207 462 -15 152 0 235 55 307 30 40 59 57 79 46 12 -7 7 -19 -25 -67 -56 -82 -64 -116 -54 -217 8 -74 11 -84 29 -84 19 0 20 6 17 100 l-4 100 60 92 c33 50 69 96 79 102 23 13 40 14 48 2z m555 -592 c0 -18 -68 -158 -147 -304 -168 -309 -367 -587 -472 -659 -36 -26 -47 -28 -95 -23 -41 4 -194 56 -215 73 -2 2 23 41 57 87 77 106 167 251 234 375 63 118 158 262 209 318 20 23 46 65 56 93 l18 51 177 0 c119 0 178 -4 178 -11z m-1443 -1382 c23 -45 71 -134 106 -197 35 -63 126 -227 202 -365 76 -137 191 -344 255 -460 277 -495 611 -1118 603 -1125 -7 -7 -208 -68 -508 -153 l-120 -35 -59 92 c-139 214 -400 635 -537 866 -47 79 -135 197 -285 380 -213 259 -398 500 -484 630 -24 36 -50 73 -58 82 -15 18 -42 14 -42 -6 0 -25 260 -381 437 -598 70 -86 103 -134 103 -152 0 -58 -43 -322 -76 -465 -55 -237 -135 -461 -257 -714 l-61 -129 -36 6 c-57 9 -544 146 -554 156 -11 11 93 298 252 700 118 300 111 253 73 510 -41 280 -71 619 -71 817 0 113 -1 112 68 100 80 -13 314 -2 465 23 207 33 510 99 525 114 12 12 18 4 59 -77z m1133 -2277 c18 -28 31 -52 29 -54 -2 -1 -93 -33 -203 -71 -162 -56 -200 -66 -207 -54 -5 8 -22 37 -39 66 l-31 52 43 11 c24 7 108 31 188 54 80 24 155 44 166 45 16 1 31 -13 54 -49z m-2251 -32 c102 -28 188 -53 190 -55 2 -1 -8 -35 -24 -74 -25 -65 -29 -70 -52 -64 -13 3 -77 17 -141 30 -64 14 -145 34 -179 46 l-63 21 16 36 c9 20 23 54 32 75 8 20 20 37 25 37 6 0 94 -23 196 -52z m3001 -207 c0 -14 -48 -46 -192 -127 -106 -59 -292 -163 -413 -231 -120 -68 -223 -123 -227 -123 -10 0 -44 68 -37 74 11 11 846 425 857 426 6 0 12 -9 12 -19z m-3389 -325 c30 -13 113 -49 184 -79 l130 -55 324 6 c304 5 324 4 318 -12 -4 -10 -7 -29 -7 -42 l0 -24 -320 0 -320 0 -126 50 c-169 68 -218 94 -244 130 -20 28 -20 50 -1 50 5 0 33 -11 62 -24z"/>
<path d="M5434 8931 c-44 -11 -54 -19 -70 -57 -12 -28 -14 -229 -14 -1236 0 -771 4 -1216 10 -1239 6 -20 20 -45 31 -55 21 -18 62 -19 1526 -19 l1505 0 29 33 29 32 0 1228 c0 1148 -1 1229 -18 1262 -11 24 -28 39 -52 47 -27 9 -388 12 -1490 11 -800 0 -1469 -3 -1486 -7z m2980 -63 c14 -20 16 -98 16 -647 l0 -624 -79 76 c-44 42 -99 86 -123 98 -90 46 -224 33 -318 -30 -25 -17 -112 -91 -195 -166 -82 -74 -170 -145 -195 -157 -30 -15 -69 -24 -118 -26 -66 -4 -79 -1 -137 27 -56 28 -87 56 -237 219 -95 103 -175 189 -178 192 -3 3 -86 92 -185 199 -125 135 -192 200 -220 212 -54 25 -157 25 -210 0 -26 -11 -159 -130 -355 -318 -443 -421 -456 -433 -469 -433 -8 0 -11 181 -11 678 0 597 2 680 16 700 l15 22 1484 0 1484 0 15 -22z m-2331 -1718 c23 -45 18 -133 -18 -278 -14 -57 -23 -108 -20 -113 3 -5 29 10 57 32 105 82 212 114 252 73 36 -35 18 -99 -65 -240 -28 -47 -49 -87 -47 -89 1 -1 32 3 68 11 201 42 293 -10 239 -135 l-21 -51 -532 0 c-292 0 -541 3 -552 6 -41 11 -44 39 -44 399 l0 344 30 16 c46 24 95 20 119 -11 27 -34 44 -121 44 -226 0 -49 3 -88 6 -88 3 0 15 13 26 29 50 72 182 216 243 267 125 104 182 118 215 54z"/>
<path d="M7567 8569 c-143 -35 -241 -159 -241 -304 0 -124 61 -223 171 -277 57 -28 77 -32 137 -32 97 1 162 30 224 100 64 71 86 134 80 228 -6 88 -41 159 -106 217 -66 58 -184 88 -265 68z m181 -65 c204 -102 199 -390 -8 -483 -52 -24 -132 -27 -194 -9 -55 16 -148 109 -164 164 -32 109 -1 218 81 290 55 48 91 62 173 63 46 1 72 -5 112 -25z"/>
<path d="M3244 8586 c-3 -8 27 -88 66 -177 40 -90 84 -193 98 -228 27 -64 45 -82 64 -63 8 8 -18 76 -87 234 -54 123 -102 229 -107 236 -14 16 -27 15 -34 -2z"/>
<path d="M3737 8553 c-3 -4 -8 -102 -12 -216 -7 -201 -7 -209 11 -205 25 4 30 47 35 258 4 147 2 165 -13 168 -9 2 -18 -1 -21 -5z"/>
<path d="M3032 8151 c2 -10 68 -71 147 -136 128 -104 145 -115 159 -102 18 19 15 22 -158 162 -117 94 -155 114 -148 76z"/>
<path d="M1906 7824 c-176 -43 -336 -214 -382 -410 -16 -67 -16 -216 0 -254 5 -13 -8 -15 -81 -16 -107 0 -154 -19 -234 -92 -75 -68 -111 -137 -117 -222 -10 -151 76 -270 230 -315 48 -14 161 -15 989 -13 l934 3 40 22 c55 29 100 79 126 137 39 90 8 207 -76 284 -78 73 -116 87 -232 87 l-103 0 0 51 c0 236 -231 402 -473 339 -32 -8 -59 -15 -61 -15 -2 0 -5 29 -8 63 -15 242 -287 415 -552 351z m245 -53 c88 -28 165 -84 210 -154 42 -65 64 -149 55 -207 -9 -58 9 -67 86 -41 41 14 87 21 138 21 66 0 86 -4 138 -31 61 -30 119 -87 147 -142 20 -40 29 -90 29 -167 1 -74 -8 -70 112 -55 119 15 233 -43 286 -144 48 -91 35 -174 -37 -244 -73 -71 -28 -68 -1046 -65 l-914 3 -67 33 c-80 39 -123 87 -144 160 -27 91 2 189 79 266 78 78 114 91 246 91 83 0 116 4 119 13 2 7 -4 32 -13 55 -35 87 -15 258 42 371 31 62 123 159 183 194 109 64 233 79 351 43z"/>
<path d="M7230 4301 c-50 -16 -87 -41 -124 -82 -57 -63 -79 -120 -80 -210 l-1 -76 -66 -1 c-230 -1 -355 -244 -206 -401 70 -73 46 -71 680 -71 614 0 595 -2 655 54 61 55 81 160 42 224 -39 64 -121 90 -183 57 -27 -14 -28 -14 -20 8 4 12 8 47 7 78 0 69 -27 116 -84 148 -61 34 -124 26 -200 -26 l-58 -40 -4 61 c-7 108 -80 216 -175 258 -50 22 -144 32 -183 19z"/>
<path d="M2641 2227 c-49 -19 -108 -72 -133 -120 -14 -27 -23 -68 -26 -114 -2 -40 -6 -73 -7 -73 -1 0 -22 7 -45 15 -88 31 -179 13 -219 -44 -29 -40 -30 -104 -4 -140 43 -57 30 -56 628 -58 l550 -3 40 23 c26 15 44 34 53 59 13 33 12 41 -4 74 -34 68 -91 92 -168 70 -28 -9 -29 -8 -22 18 9 38 -11 106 -42 138 -59 64 -142 58 -209 -15 l-40 -43 -16 45 c-21 60 -67 114 -123 147 -54 32 -158 42 -213 21z"/>
</g>
</svg>
